<svg xmlns="http://www.w3.org/2000/svg" viewBox="0 0 1080 420" width="1080" height="420">


    
    <rect x="16" y="16" width="1048" height="388" rx="34" fill="#220006" opacity="0.98"/>
    
    <path d="M74 26 H894 L1030 96 V314 L958 394 H102 H64 L26 354 V86 Z" fill="none" stroke="#ff9d1a" stroke-width="10" stroke-linejoin="round"/>
    <path d="M894 26 V96 H1030" fill="none" stroke="#ff9d1a" stroke-width="10" stroke-linejoin="round"/>
    <circle cx="972" cy="74" r="18" fill="#f5efe2" stroke="#ff9d1a" stroke-width="6"/>
    
        <path d="M86 54 H232" stroke="#4b1208" stroke-width="8" opacity="0.22" stroke-linecap="round"/>
        <path d="M858 334 H980" stroke="#4b1208" stroke-width="8" opacity="0.18" stroke-linecap="round"/>
        
    
    <g opacity="0.95">
      <path d="M130 250 H358" stroke="#ff9d1a" stroke-width="18" stroke-linecap="round"/>
      <path d="M330 222 L394 250 L330 278" fill="none" stroke="#f5efe2" stroke-width="14" stroke-linecap="round" stroke-linejoin="round"/>
      <path d="M416 176 H682" stroke="#6ea0c7" stroke-width="18" stroke-linecap="round"/>
      <path d="M654 148 L718 176 L654 204" fill="none" stroke="#f5efe2" stroke-width="14" stroke-linecap="round" stroke-linejoin="round"/>
      <path d="M742 250 H948" stroke="#ff9d1a" stroke-width="18" stroke-linecap="round"/>
      <path d="M920 222 L984 250 L920 278" fill="none" stroke="#f5efe2" stroke-width="14" stroke-linecap="round" stroke-linejoin="round"/>
      <circle cx="404" cy="176" r="22" fill="none" stroke="#ffbf57" stroke-width="10"/>
      <circle cx="728" cy="250" r="22" fill="none" stroke="#ffbf57" stroke-width="10"/>
      <circle cx="244" cy="250" r="18" fill="#f5efe2" stroke="#ff9d1a" stroke-width="8"/>
      <g opacity="0.34">
        <rect x="140" y="90" width="170" height="40" rx="12" fill="#6ea0c7"/>
        <rect x="770" y="94" width="170" height="32" rx="12" fill="#ff9d1a"/>
      </g>
      <g opacity="0.30">
        <path d="M416 116 H700" stroke="#f5efe2" stroke-width="8" stroke-linecap="round"/>
        <path d="M416 320 H700" stroke="#f5efe2" stroke-width="8" stroke-linecap="round"/>
      </g>
    </g>
    
    <path d="M84 310 H408" stroke="#f5efe2" stroke-width="12" stroke-linecap="round"/>
    <path d="M84 352 H532" stroke="#ff9d1a" stroke-width="8" stroke-linecap="round"/>
    
    
</svg>