<svg xmlns="http://www.w3.org/2000/svg" viewBox="0 0 1024 500" width="1024" height="500">
<rect width="100%" height="100%" fill="#120104"/>

      <rect width="1024" height="500" rx="0" fill="none"/>
      
      <path d="M650 70 L724 36 L802 90 L880 36 L954 70 L954 374 L888 444 H716 L650 374 Z"
            fill="none" stroke="#f5efe2" stroke-width="16" stroke-linejoin="round"/>
      <path d="M724 36 L724 160 L880 160 L880 36" fill="none" stroke="#f5efe2" stroke-width="16" stroke-linejoin="round"/>
      <path d="M770 196 V284 M832 196 V284" stroke="#f5efe2" stroke-width="12" stroke-linecap="round"/>
      <path d="M748 316 Q801 352 854 316" fill="none" stroke="#f5efe2" stroke-width="12" stroke-linecap="round"/>
      <path d="M664 150 L626 194" fill="none" stroke="#f5efe2" stroke-width="12" stroke-linecap="round"/>
      <path d="M940 150 L978 194" fill="none" stroke="#f5efe2" stroke-width="12" stroke-linecap="round"/>
      <path d="M278 154 H518" stroke="#f5efe2" stroke-width="18" stroke-linecap="round"/>
      <path d="M278 196 H562" stroke="#f5efe2" stroke-width="12" stroke-linecap="round"/>
      <path d="M278 252 H548" stroke="#f5efe2" stroke-width="10" stroke-linecap="round" opacity="0.95"/>
      <path d="M278 294 H516" stroke="#f5efe2" stroke-width="10" stroke-linecap="round" opacity="0.75"/>
      <path d="M278 336 H468" stroke="#f5efe2" stroke-width="10" stroke-linecap="round" opacity="0.85"/>
      <path d="M278 394 H410" stroke="#f5efe2" stroke-width="10" stroke-linecap="round" opacity="0.65"/>
      <path d="M112 114 H214" stroke="#f5efe2" stroke-width="14" stroke-linecap="round"/>
      <path d="M112 148 H190" stroke="#f5efe2" stroke-width="8" stroke-linecap="round"/>
      <circle cx="146" cy="226" r="32" fill="none" stroke="#f5efe2" stroke-width="8"/>
      <path d="M146 208 V226 L166 238" fill="none" stroke="#f5efe2" stroke-width="8" stroke-linecap="round" stroke-linejoin="round"/>
      <circle cx="146" cy="320" r="32" fill="none" stroke="#f5efe2" stroke-width="8"/>
      <path d="M132 320 L142 330 L162 308" fill="none" stroke="#f5efe2" stroke-width="8" stroke-linecap="round" stroke-linejoin="round"/>
      <circle cx="146" cy="414" r="32" fill="none" stroke="#f5efe2" stroke-width="8"/>
      <path d="M130 414 H162" stroke="#f5efe2" stroke-width="8" stroke-linecap="round"/>
    
</svg>