<svg xmlns="http://www.w3.org/2000/svg" viewBox="0 0 128 128" width="128" height="128">


        <rect x="12" y="12" width="104" height="104" rx="20" fill="#260007" opacity="0.96"/>
        <path d="M32 18 H86 L110 42 V94 L94 110 H36 L18 92 V34 Z"
              fill="none" stroke="#ff9d1a" stroke-width="6" stroke-linejoin="round"/>
        <circle cx="98" cy="30" r="6" fill="#f5efe2" stroke="#ff9d1a" stroke-width="4"/>
        <path d="M86 18 V42 H110" fill="none" stroke="#ff9d1a" stroke-width="6" stroke-linejoin="round"/>
        
        <path d="M26 22 L54 22" stroke="#4b1208" stroke-width="3" opacity="0.35"/>
        <path d="M74 101 L99 101" stroke="#4b1208" stroke-width="3" opacity="0.28"/>
        <path d="M92 31 L106 31" stroke="#4b1208" stroke-width="3" opacity="0.28"/>
        
        
    <path d="M42 78 L42 52 L74 52" fill="none" stroke="#ff9d1a" stroke-width="6" stroke-linecap="round" stroke-linejoin="round"/>
    <path d="M64 42 L74 52 L64 62" fill="none" stroke="#ff9d1a" stroke-width="6" stroke-linecap="round" stroke-linejoin="round"/>
    <path d="M86 50 L86 76 L54 76" fill="none" stroke="#f5efe2" stroke-width="6" stroke-linecap="round" stroke-linejoin="round"/>
    <path d="M64 66 L54 76 L64 86" fill="none" stroke="#f5efe2" stroke-width="6" stroke-linecap="round" stroke-linejoin="round"/>
    
        
</svg>