<svg xmlns="http://www.w3.org/2000/svg" viewBox="0 0 128 128" width="128" height="128">


        
        <path d="M32 18 H86 L110 42 V94 L94 110 H36 L18 92 V34 Z"
              fill="none" stroke="#f5efe2" stroke-width="6" stroke-linejoin="round"/>
        <circle cx="98" cy="30" r="6" fill="#f5efe2" stroke="#f5efe2" stroke-width="4"/>
        <path d="M86 18 V42 H110" fill="none" stroke="#f5efe2" stroke-width="6" stroke-linejoin="round"/>
        
        
    <path d="M64 42 V56 M64 70 V84 M50 56 L58 60 M70 66 L78 70 M50 70 L58 66 M70 60 L78 56 M56 48 L60 56 M68 72 L72 80 M56 80 L60 72 M68 56 L72 48"
          stroke="#f5efe2" stroke-width="5" stroke-linecap="round"/>
    <path d="M42 64 H86" stroke="#f5efe2" stroke-width="6" stroke-linecap="round"/>
    
        
</svg>