<svg xmlns="http://www.w3.org/2000/svg" viewBox="0 0 128 128" width="128" height="128">


        
        <path d="M32 18 H86 L110 42 V94 L94 110 H36 L18 92 V34 Z"
              fill="none" stroke="#f5efe2" stroke-width="6" stroke-linejoin="round"/>
        <circle cx="98" cy="30" r="6" fill="#f5efe2" stroke="#f5efe2" stroke-width="4"/>
        <path d="M86 18 V42 H110" fill="none" stroke="#f5efe2" stroke-width="6" stroke-linejoin="round"/>
        
        
    <path d="M42 48 H80 A8 8 0 0 1 88 56 V66 A14 14 0 0 1 74 80 H58 A16 16 0 0 1 42 64 Z"
          fill="none" stroke="#f5efe2" stroke-width="6" stroke-linejoin="round"/>
    <path d="M88 56 H94 A8 8 0 0 1 94 72 H88" fill="none" stroke="#f5efe2" stroke-width="6"/>
    <path d="M48 36 C52 30, 56 28, 58 24" stroke="#f5efe2" stroke-width="5" stroke-linecap="round"/>
    <path d="M62 36 C66 30, 70 28, 72 24" stroke="#f5efe2" stroke-width="5" stroke-linecap="round"/>
    <path d="M48 88 H80" stroke="#f5efe2" stroke-width="6" stroke-linecap="round"/>
    
        
</svg>