<svg xmlns="http://www.w3.org/2000/svg" viewBox="0 0 1080 220" width="1080" height="220">


    <rect x="16" y="16" width="1048" height="188" rx="28" fill="none" opacity="0.98"/>
    <path d="M60 24 H880 L1020 84 V142 L950 196 H100 H54 L24 162 V78 Z" fill="none" stroke="#f5efe2" stroke-width="8" stroke-linejoin="round"/>
    <path d="M880 24 V84 H1020" fill="none" stroke="#f5efe2" stroke-width="8" stroke-linejoin="round"/>
    <rect x="40" y="40" width="142" height="82" rx="20" fill="none" stroke="#f5efe2" stroke-width="5"/>
    <circle cx="112" cy="82" r="28" fill="#f5efe2" stroke="#f5efe2" stroke-width="6"/>
    <path d="M244 72 H600" stroke="#f5efe2" stroke-width="12" stroke-linecap="round"/>
    <path d="M244 114 H694" stroke="#f5efe2" stroke-width="8" stroke-linecap="round"/>
    <path d="M244 152 H540" stroke="#f5efe2" stroke-width="6" opacity="0.8" stroke-linecap="round"/>
    
        <g opacity="0.28">
          <circle cx="846" cy="70" r="16" fill="#f5efe2"/>
          <circle cx="908" cy="64" r="12" fill="#f5efe2"/>
          <circle cx="970" cy="76" r="18" fill="#f5efe2"/>
        </g>
        
    
    <path d="M122 60 V104 M94 84 H126 M112 60 L94 84" fill="none" stroke="#220006" stroke-width="6" stroke-linecap="round" stroke-linejoin="round"/>
</svg>