<svg xmlns="http://www.w3.org/2000/svg" viewBox="0 0 1080 220" width="1080" height="220">


    <rect x="16" y="16" width="1048" height="188" rx="28" fill="none" opacity="0.98"/>
    <path d="M60 24 H880 L1020 84 V142 L950 196 H100 H54 L24 162 V78 Z" fill="none" stroke="#f5efe2" stroke-width="8" stroke-linejoin="round"/>
    <path d="M880 24 V84 H1020" fill="none" stroke="#f5efe2" stroke-width="8" stroke-linejoin="round"/>
    <rect x="40" y="40" width="142" height="82" rx="20" fill="none" stroke="#f5efe2" stroke-width="5"/>
    <circle cx="112" cy="82" r="28" fill="#f5efe2" stroke="#f5efe2" stroke-width="6"/>
    <path d="M244 72 H600" stroke="#f5efe2" stroke-width="12" stroke-linecap="round"/>
    <path d="M244 114 H694" stroke="#f5efe2" stroke-width="8" stroke-linecap="round"/>
    <path d="M244 152 H540" stroke="#f5efe2" stroke-width="6" opacity="0.8" stroke-linecap="round"/>
    
        <g opacity="0.24">
          <path d="M816 72 H998" stroke="#f5efe2" stroke-width="12" stroke-linecap="round"/>
          <path d="M850 116 H964" stroke="#f5efe2" stroke-width="8" stroke-linecap="round"/>
        </g>
        
    
    <path d="M112 62 C102 62, 96 68, 96 76 C96 84, 102 90, 112 90 C122 90, 128 96, 128 104 C128 112, 122 118, 112 118 C102 118, 96 112, 96 104 C96 96, 102 90, 112 90 C122 90, 128 84, 128 76 C128 68, 122 62, 112 62 Z" fill="none" stroke="#220006" stroke-width="5" stroke-linecap="round" stroke-linejoin="round"/>
</svg>