<svg xmlns="http://www.w3.org/2000/svg" width="128" height="128" viewBox="0 0 128 128" role="img" aria-label="Root Access Shard">
    <defs>
      <filter id="shadow" x="-30%" y="-30%" width="160%" height="160%">
        <feDropShadow dx="0" dy="2" stdDeviation="2.5" flood-color="#000000" flood-opacity="0.35"/>
      </filter>
    </defs>
    <g filter="url(#shadow)">
      <rect x="18" y="18" width="92" height="92" rx="22" fill="#1B0C0D" stroke="#FF8A1C" stroke-width="6"/>
      <rect x="25" y="25" width="78" height="78" rx="18" fill="#250E0E" opacity="0.6"/>
      <path d="M26 41 C44 20, 84 20, 102 41" fill="none" stroke="#FFCF7A" stroke-opacity="0.16" stroke-width="10" stroke-linecap="round"/>
      
    <g opacity="0.18" fill="#FFB347">
      <circle cx="27" cy="33" r="1.8"/><circle cx="36" cy="25" r="1.3"/><circle cx="95" cy="27" r="1.6"/>
      <circle cx="102" cy="40" r="1.1"/><circle cx="28" cy="92" r="1.4"/><circle cx="92" cy="102" r="1.8"/>
      <rect x="83" y="18" width="9" height="2" rx="1" transform="rotate(18 88 19)"/>
      <rect x="22" y="78" width="8" height="2" rx="1" transform="rotate(-22 26 79)"/>
    </g>
      
    <path d="M65 24 l16 18 -8 6 16 16 -13 6 -2 16 -16 -6 -12 18 -5 -23 -17 -6 14 -12 -4 -18 14 4z" fill="none" stroke="#FFB347" stroke-width="4" stroke-linejoin="round"/>
    <path d="M64 31 l7 19 -8 5 11 11 -10 4 -2 12 -12 -5 -8 12 -3-15 -12 -4 10 -8 -3 -13 10 3z" fill="#FFF4E3" opacity="0.12"/>
    
    </g>
    </svg>