<svg xmlns="http://www.w3.org/2000/svg" width="128" height="128" viewBox="0 0 128 128" role="img" aria-label="High risk">
    <defs>
      <filter id="shadow" x="-30%" y="-30%" width="160%" height="160%">
        <feDropShadow dx="0" dy="2" stdDeviation="2.5" flood-color="#000000" flood-opacity="0.35"/>
      </filter>
    </defs>
    <g filter="url(#shadow)">
      <polygon points="105.6,90.0 64.0,114.0 22.4,90.0 22.4,42.0 64.0,18.0 105.6,42.0" fill="#1B0C0D" stroke="#FF8A1C" stroke-width="6" stroke-linejoin="round"/>
      <polygon points="99.5,86.5 64.0,107.0 28.5,86.5 28.5,45.5 64.0,25.0 99.5,45.5" fill="#250E0E" opacity="0.6"/>
      <path d="M26 41 C44 20, 84 20, 102 41" fill="none" stroke="#FFCF7A" stroke-opacity="0.16" stroke-width="10" stroke-linecap="round"/>
      
    <g opacity="0.18" fill="#FFB347">
      <circle cx="27" cy="33" r="1.8"/><circle cx="36" cy="25" r="1.3"/><circle cx="95" cy="27" r="1.6"/>
      <circle cx="102" cy="40" r="1.1"/><circle cx="28" cy="92" r="1.4"/><circle cx="92" cy="102" r="1.8"/>
      <rect x="83" y="18" width="9" height="2" rx="1" transform="rotate(18 88 19)"/>
      <rect x="22" y="78" width="8" height="2" rx="1" transform="rotate(-22 26 79)"/>
    </g>
      
    <g stroke="#FFB347" stroke-width="4" stroke-linecap="round" stroke-linejoin="round" fill="none">
      <polygon points="64,30 94,84 34,84"/>
      <path d="M64 46 L64 63"/>
      <circle cx="64" cy="73" r="2.5" fill="#FFF4E3" stroke="none"/>
    </g>
    <path d="M42 92 L86 92" stroke="#FFF4E3" stroke-width="5" stroke-linecap="round"/>
    
    </g>
    </svg>