<svg xmlns="http://www.w3.org/2000/svg" viewBox="0 0 128 128" width="128" height="128">

    <rect x="12" y="12" width="104" height="104" rx="20" fill="none" opacity="0.98"/>
    <path d="M32 18 H86 L110 42 V94 L94 110 H36 L18 92 V34 Z" fill="none" stroke="#f5efe2" stroke-width="6" stroke-linejoin="round"/>
    <path d="M86 18 V42 H110" fill="none" stroke="#f5efe2" stroke-width="6" stroke-linejoin="round"/>
    <circle cx="98" cy="30" r="6" fill="#f5efe2" stroke="#f5efe2" stroke-width="4"/>
    
    
    <path d="M44 48 C44 38, 52 32, 60 32 C66 32, 72 35, 76 40 C80 35, 86 32, 92 32 C100 32, 108 38, 108 48 C108 64, 92 74, 76 88 C60 74, 44 64, 44 48 Z"
          fill="none" stroke="#f5efe2" stroke-width="6" stroke-linejoin="round"/>
    <path d="M54 96 H90 A10 10 0 0 0 100 86 V72 H82" fill="none" stroke="#f5efe2" stroke-width="5" stroke-linecap="round" stroke-linejoin="round"/>
    <path d="M58 54 H94" stroke="#f5efe2" stroke-width="5" stroke-linecap="round"/>
    
    
</svg>