<svg xmlns="http://www.w3.org/2000/svg" viewBox="0 0 128 128" width="128" height="128">

    <rect x="12" y="12" width="104" height="104" rx="20" fill="none" opacity="0.98"/>
    <path d="M32 18 H86 L110 42 V94 L94 110 H36 L18 92 V34 Z" fill="none" stroke="#f5efe2" stroke-width="6" stroke-linejoin="round"/>
    <path d="M86 18 V42 H110" fill="none" stroke="#f5efe2" stroke-width="6" stroke-linejoin="round"/>
    <circle cx="98" cy="30" r="6" fill="#f5efe2" stroke="#f5efe2" stroke-width="4"/>
    
    
    <path d="M46 44 H82 A10 10 0 0 1 92 54 V60 A10 10 0 0 1 82 70 H74" fill="none" stroke="#f5efe2" stroke-width="6" stroke-linecap="round"/>
    <path d="M82 44 V34 M54 44 V34 M92 54 H102 M92 60 H102 M50 70 L38 82 L46 90 L58 78" fill="none" stroke="#f5efe2" stroke-width="5" stroke-linecap="round" stroke-linejoin="round"/>
    <path d="M60 70 L74 84" stroke="#f5efe2" stroke-width="6" stroke-linecap="round"/>
    <path d="M74 84 L90 68" stroke="#f5efe2" stroke-width="6" stroke-linecap="round"/>
    
    
</svg>