<svg xmlns="http://www.w3.org/2000/svg" viewBox="0 0 300 220" width="300" height="220">


    <rect x="8" y="8" width="284" height="204" rx="22" fill="#220006" opacity="0.98"/>
    <rect x="8" y="8" width="284" height="204" rx="22" fill="none" stroke="#ff9d1a" stroke-width="4"/>
    <rect x="24" y="24" width="104" height="128" rx="20" fill="#32060b" stroke="#ffbf57" stroke-width="4"/>
    <path d="M148 40 H252" stroke="#f5efe2" stroke-width="7" stroke-linecap="round"/>
    <path d="M148 66 H232" stroke="#ff9d1a" stroke-width="5" stroke-linecap="round"/>
    <path d="M148 118 H266" stroke="#f5efe2" stroke-width="4" opacity="0.92" stroke-linecap="round"/>
    <path d="M148 142 H244" stroke="#f5efe2" stroke-width="4" opacity="0.72" stroke-linecap="round"/>
    <path d="M148 168 H220" stroke="#ff9d1a" stroke-width="4" opacity="0.84" stroke-linecap="round"/>
    <path d="M28 190 H94" stroke="#ffbf57" stroke-width="4" opacity="0.55" stroke-linecap="round"/>
    
        <path d="M54 90 C46 82, 42 74, 42 64 C42 48, 52 38, 64 38 C76 38, 86 48, 86 64 C86 74, 82 82, 74 90"
              fill="none" stroke="#ff9d1a" stroke-width="6" stroke-linecap="round"/>
        <path d="M48 52 L38 42 M80 52 L90 42" fill="none" stroke="#f5efe2" stroke-width="5" stroke-linecap="round"/>
        <path d="M58 66 H64 M74 66 H80" stroke="#f5efe2" stroke-width="5" stroke-linecap="round"/>
        <path d="M56 80 C62 86, 66 88, 72 88" fill="none" stroke="#ffbf57" stroke-width="5" stroke-linecap="round"/>
        <path d="M38 112 H92" stroke="#ff9d1a" stroke-width="6" stroke-linecap="round"/>
        
    
</svg>