<svg xmlns="http://www.w3.org/2000/svg" viewBox="0 0 300 220" width="300" height="220">


    <rect x="8" y="8" width="284" height="204" rx="22" fill="#220006" opacity="0.98"/>
    <rect x="8" y="8" width="284" height="204" rx="22" fill="none" stroke="#90b86a" stroke-width="4"/>
    <rect x="24" y="24" width="104" height="128" rx="20" fill="#32060b" stroke="#ffbf57" stroke-width="4"/>
    <path d="M148 40 H252" stroke="#f5efe2" stroke-width="7" stroke-linecap="round"/>
    <path d="M148 66 H232" stroke="#90b86a" stroke-width="5" stroke-linecap="round"/>
    <path d="M148 118 H266" stroke="#f5efe2" stroke-width="4" opacity="0.92" stroke-linecap="round"/>
    <path d="M148 142 H244" stroke="#f5efe2" stroke-width="4" opacity="0.72" stroke-linecap="round"/>
    <path d="M148 168 H220" stroke="#90b86a" stroke-width="4" opacity="0.84" stroke-linecap="round"/>
    <path d="M28 190 H94" stroke="#ffbf57" stroke-width="4" opacity="0.55" stroke-linecap="round"/>
    
        <path d="M64 36 C78 36, 88 48, 88 62 C88 76, 78 88, 64 92 C50 88, 40 76, 40 62 C40 48, 50 36, 64 36 Z"
              fill="none" stroke="#90b86a" stroke-width="6"/>
        <path d="M64 20 V36" stroke="#ffbf57" stroke-width="5" stroke-linecap="round"/>
        <path d="M52 30 L44 22 M76 30 L84 22" stroke="#ffbf57" stroke-width="5" stroke-linecap="round"/>
        <path d="M52 100 C56 84, 72 84, 76 100" fill="none" stroke="#f5efe2" stroke-width="5" stroke-linecap="round"/>
        <path d="M36 108 H92" stroke="#90b86a" stroke-width="6" stroke-linecap="round"/>
        
    
</svg>