<svg xmlns="http://www.w3.org/2000/svg" viewBox="0 0 1080 220" width="1080" height="220">


    <rect x="16" y="16" width="1048" height="188" rx="28" fill="#220006" opacity="0.98"/>
    <path d="M60 24 H880 L1020 84 V142 L950 196 H100 H54 L24 162 V78 Z" fill="none" stroke="#46c7d9" stroke-width="8" stroke-linejoin="round"/>
    <path d="M880 24 V84 H1020" fill="none" stroke="#46c7d9" stroke-width="8" stroke-linejoin="round"/>
    <rect x="40" y="40" width="142" height="82" rx="20" fill="#32060b" stroke="#90b86a" stroke-width="5"/>
    <circle cx="112" cy="82" r="26" fill="#f5efe2" stroke="#46c7d9" stroke-width="6"/>
    <path d="M244 72 H590" stroke="#f5efe2" stroke-width="12" stroke-linecap="round"/>
    <path d="M244 114 H718" stroke="#46c7d9" stroke-width="8" stroke-linecap="round"/>
    <path d="M244 152 H520" stroke="#90b86a" stroke-width="6" opacity="0.78" stroke-linecap="round"/>
    <path d="M88 52 H216" stroke="#4b1208" stroke-width="6" opacity="0.20" stroke-linecap="round"/>
    <path d="M808 68 H912 L942 98 V136 H808 Z" fill="none" stroke="#46c7d9" stroke-width="6" stroke-linejoin="round"/><path d="M874 68 V96 H942" fill="none" stroke="#f5efe2" stroke-width="5"/><path d="M968 74 V122" stroke="#90b86a" stroke-width="8" stroke-linecap="round"/><path d="M944 98 H992" stroke="#90b86a" stroke-width="8" stroke-linecap="round"/><circle cx="112" cy="82" r="10" fill="#120104" opacity="0.9"/>
</svg>