<svg xmlns="http://www.w3.org/2000/svg" viewBox="0 0 1080 420" width="1080" height="420">


    
    <rect x="16" y="16" width="1048" height="388" rx="34" fill="none" opacity="0.98"/>
    
    <path d="M74 26 H894 L1030 96 V314 L958 394 H102 H64 L26 354 V86 Z" fill="none" stroke="#f5efe2" stroke-width="10" stroke-linejoin="round"/>
    <path d="M894 26 V96 H1030" fill="none" stroke="#f5efe2" stroke-width="10" stroke-linejoin="round"/>
    <circle cx="972" cy="74" r="18" fill="#f5efe2" stroke="#f5efe2" stroke-width="6"/>
    
    
    <g opacity="0.95">
      <g opacity="0.26">
        <path d="M192 84 H884" stroke="#f5efe2" stroke-width="8" stroke-linecap="round"/>
        <path d="M164 124 H912" stroke="#f5efe2" stroke-width="6" stroke-linecap="round"/>
      </g>
      <path d="M286 232 Q540 150 794 232" fill="none" stroke="#f5efe2" stroke-width="20" stroke-linecap="round"/>
      <path d="M286 274 Q540 192 794 274" fill="none" stroke="#f5efe2" stroke-width="16" stroke-linecap="round"/>
      <path d="M286 316 Q540 234 794 316" fill="none" stroke="#f5efe2" stroke-width="12" stroke-linecap="round"/>
      <path d="M390 184 H690" stroke="#f5efe2" stroke-width="8" opacity="0.56" stroke-linecap="round"/>
      <path d="M412 350 H668" stroke="#f5efe2" stroke-width="8" opacity="0.46" stroke-linecap="round"/>
      <g opacity="0.44">
        <path d="M170 172 C226 150, 252 182, 304 162" fill="none" stroke="#f5efe2" stroke-width="8" stroke-linecap="round"/>
        <path d="M776 162 C828 182, 854 150, 910 172" fill="none" stroke="#f5efe2" stroke-width="8" stroke-linecap="round"/>
      </g>
      <g opacity="0.34">
        <rect x="214" y="82" width="136" height="34" rx="12" fill="#f5efe2"/>
        <rect x="730" y="82" width="136" height="34" rx="12" fill="#f5efe2"/>
      </g>
      <path d="M540 152 V346" stroke="#f5efe2" stroke-width="8" opacity="0.42" stroke-linecap="round"/>
    </g>
    
    <path d="M84 310 H408" stroke="#f5efe2" stroke-width="12" stroke-linecap="round"/>
    <path d="M84 352 H532" stroke="#f5efe2" stroke-width="8" stroke-linecap="round"/>
    
    
</svg>