<svg xmlns="http://www.w3.org/2000/svg" viewBox="0 0 1080 220" width="1080" height="220">


    <rect x="16" y="16" width="1048" height="188" rx="28" fill="#220006" opacity="0.98"/>
    <path d="M60 24 H880 L1020 84 V142 L950 196 H100 H54 L24 162 V78 Z" fill="none" stroke="#c4cad2" stroke-width="8" stroke-linejoin="round"/>
    <path d="M880 24 V84 H1020" fill="none" stroke="#c4cad2" stroke-width="8" stroke-linejoin="round"/>
    <rect x="40" y="40" width="142" height="82" rx="20" fill="#32060b" stroke="#ff9d1a" stroke-width="5"/>
    <circle cx="112" cy="82" r="28" fill="#f5efe2" stroke="#c4cad2" stroke-width="6"/>
    <path d="M244 72 H600" stroke="#f5efe2" stroke-width="12" stroke-linecap="round"/>
    <path d="M244 114 H694" stroke="#c4cad2" stroke-width="8" stroke-linecap="round"/>
    <path d="M244 152 H540" stroke="#ff9d1a" stroke-width="6" opacity="0.8" stroke-linecap="round"/>
    
        <g opacity="0.24">
          <path d="M816 72 H998" stroke="#ff9d1a" stroke-width="12" stroke-linecap="round"/>
          <path d="M850 116 H964" stroke="#c4cad2" stroke-width="8" stroke-linecap="round"/>
        </g>
        
    
        <path d="M76 52 H228" stroke="#4b1208" stroke-width="6" opacity="0.22" stroke-linecap="round"/>
        <path d="M844 168 H978" stroke="#4b1208" stroke-width="6" opacity="0.18" stroke-linecap="round"/>
        
    <path d="M96 64 V100 M124 64 V100 M118 64 A10 10 0 1 1 118 100 A10 10 0 1 1 118 64" fill="none" stroke="#120104" stroke-width="5" stroke-linecap="round"/>
</svg>