<svg xmlns="http://www.w3.org/2000/svg" viewBox="0 0 360 640" width="360" height="640">

    
<defs>
  <linearGradient id="bgDark" x1="0" y1="0" x2="0" y2="1">
    <stop offset="0%" stop-color="#120206"/>
    <stop offset="100%" stop-color="#080103"/>
  </linearGradient>
  <filter id="softBlur" x="-20%" y="-20%" width="140%" height="140%">
    <feGaussianBlur stdDeviation="12"/>
  </filter>
  <filter id="medBlur" x="-20%" y="-20%" width="140%" height="140%">
    <feGaussianBlur stdDeviation="22"/>
  </filter>
  <filter id="heavyBlur" x="-20%" y="-20%" width="140%" height="140%">
    <feGaussianBlur stdDeviation="34"/>
  </filter>
  <radialGradient id="emberGlow" cx="50%" cy="30%" r="70%">
    <stop offset="0%" stop-color="#ffbf57" stop-opacity="0.28"/>
    <stop offset="50%" stop-color="#ff9d1a" stop-opacity="0.12"/>
    <stop offset="100%" stop-color="#ff9d1a" stop-opacity="0"/>
  </radialGradient>
  <radialGradient id="tealGlow" cx="50%" cy="20%" r="80%">
    <stop offset="0%" stop-color="#75ebff" stop-opacity="0.20"/>
    <stop offset="45%" stop-color="#46c7d9" stop-opacity="0.08"/>
    <stop offset="100%" stop-color="#46c7d9" stop-opacity="0"/>
  </radialGradient>
  <radialGradient id="glassGlow" cx="50%" cy="20%" r="90%">
    <stop offset="0%" stop-color="#e8f2fb" stop-opacity="0.18"/>
    <stop offset="50%" stop-color="#b8bec8" stop-opacity="0.06"/>
    <stop offset="100%" stop-color="#b8bec8" stop-opacity="0"/>
  </radialGradient>
  <linearGradient id="vignette" x1="0" y1="0" x2="0" y2="1">
    <stop offset="0%" stop-color="#000000" stop-opacity="0.42"/>
    <stop offset="22%" stop-color="#000000" stop-opacity="0.08"/>
    <stop offset="78%" stop-color="#000000" stop-opacity="0.12"/>
    <stop offset="100%" stop-color="#000000" stop-opacity="0.48"/>
  </linearGradient>
</defs>

    <rect width="360" height="640" fill="url(#bgDark)"/>
    <rect width="360" height="640" fill="url(#emberGlow)"/>
    <g opacity="0.9">
      <rect x="34" y="58" width="292" height="26" rx="12" fill="#2d0d12"/>
      <rect x="44" y="66" width="272" height="10" rx="5" fill="#ff9d1a" opacity="0.30"/>
      <g filter="url(#softBlur)" opacity="0.52">
        <circle cx="72" cy="122" r="24" fill="#ffbf57"/>
        <circle cx="180" cy="110" r="22" fill="#ff9d1a"/>
        <circle cx="292" cy="126" r="26" fill="#b73a14"/>
      </g>
      <circle cx="72" cy="122" r="13" fill="#ffbf57" opacity="0.95"/>
      <circle cx="180" cy="110" r="12" fill="#ff9d1a" opacity="0.95"/>
      <circle cx="292" cy="126" r="14" fill="#b73a14" opacity="0.92"/>
      <path d="M32 176 H328" stroke="#ff9d1a" stroke-width="8" opacity="0.26"/>
      <path d="M32 226 H328" stroke="#ffbf57" stroke-width="6" opacity="0.18"/>
      <path d="M50 292 C120 250, 240 250, 310 292" fill="none" stroke="#ff9d1a" stroke-width="10" opacity="0.20"/>
      <path d="M36 332 H324" stroke="#f5efe2" stroke-width="4" opacity="0.10"/>
      <g opacity="0.45">
        <path d="M58 420 L92 394 L126 420 L92 446 Z" fill="none" stroke="#ffbf57" stroke-width="5"/>
        <path d="M234 430 L272 402 L310 430 L272 458 Z" fill="none" stroke="#ff9d1a" stroke-width="5"/>
      </g>
      <rect x="42" y="492" width="276" height="74" rx="18" fill="#1e090d" opacity="0.88" stroke="#b73a14" stroke-width="2"/>
      <g filter="url(#medBlur)" opacity="0.16">
        <rect x="60" y="510" width="240" height="24" rx="12" fill="#ff9d1a"/>
      </g>
      <rect width="360" height="640" fill="url(#vignette)"/>
    </g>
    
</svg>